<svg width="28" height="27" viewBox="0 0 28 27" fill="none" xmlns="http://www.w3.org/2000/svg">
<path d="M12.5333 0.800013C6.40001 1.46668 1.46668 6.40001 0.800012 12.4C0.133345 18.6667 3.73334 24.2667 9.20001 26.4C9.60001 26.5333 10 26.2667 10 25.7333V23.6C10 23.6 9.46668 23.7333 8.80001 23.7333C6.93335 23.7333 6.13335 22.1333 6.00001 21.2C5.86668 20.6667 5.60001 20.2667 5.20001 19.8667C4.80001 19.7333 4.66668 19.7333 4.66668 19.6C4.66668 19.3333 5.06668 19.3333 5.20001 19.3333C6.00001 19.3333 6.66668 20.2667 6.93334 20.6667C7.60001 21.7333 8.40001 22 8.80001 22C9.33335 22 9.73335 21.8667 10 21.7333C10.1333 20.8 10.5333 19.8667 11.3333 19.3333C8.26668 18.6667 6.00001 16.9333 6.00001 14C6.00001 12.5333 6.66668 11.0667 7.60001 10C7.46668 9.73335 7.33334 9.06668 7.33334 8.13335C7.33334 7.60001 7.33335 6.80001 7.73335 6.00001C7.73335 6.00001 9.60001 6.00001 11.4667 7.73335C12.1333 7.46668 13.0667 7.33335 14 7.33335C14.9333 7.33335 15.8667 7.46668 16.6667 7.73335C18.4 6.00001 20.4 6.00001 20.4 6.00001C20.6667 6.80001 20.6667 7.60001 20.6667 8.13335C20.6667 9.20001 20.5333 9.73335 20.4 10C21.3333 11.0667 22 12.4 22 14C22 16.9333 19.7333 18.6667 16.6667 19.3333C17.4667 20 18 21.2 18 22.4V25.8667C18 26.2667 18.4 26.6667 18.9333 26.5333C23.8667 24.5333 27.3333 19.7333 27.3333 14.1333C27.3333 6.13335 20.5333 -0.133321 12.5333 0.800013Z" fill="#F3F3F3"/>
</svg>
