<svg width="28" height="28" viewBox="0 0 28 28" fill="none" xmlns="http://www.w3.org/2000/svg">
<path d="M24.2401 0.559998H3.76006C1.99366 0.559998 0.560059 1.9936 0.560059 3.76V24.24C0.560059 26.0064 1.99366 27.44 3.76006 27.44H24.2401C26.0065 27.44 27.4401 26.0064 27.4401 24.24V3.76C27.4401 1.9936 26.0065 0.559998 24.2401 0.559998ZM8.88006 10.8V22.96H5.04006V10.8H8.88006ZM5.04006 7.2608C5.04006 6.3648 5.80806 5.68 6.96006 5.68C8.11206 5.68 8.83526 6.3648 8.88006 7.2608C8.88006 8.1568 8.16326 8.88 6.96006 8.88C5.80806 8.88 5.04006 8.1568 5.04006 7.2608ZM22.9601 22.96H19.1201C19.1201 22.96 19.1201 17.0336 19.1201 16.56C19.1201 15.28 18.4801 14 16.8801 13.9744H16.8289C15.2801 13.9744 14.6401 15.2928 14.6401 16.56C14.6401 17.1424 14.6401 22.96 14.6401 22.96H10.8001V10.8H14.6401V12.4384C14.6401 12.4384 15.8753 10.8 18.3585 10.8C20.8993 10.8 22.9601 12.5472 22.9601 16.0864V22.96Z" fill="#F3F3F3"/>
</svg>
